<svg xmlns="http://www.w3.org/2000/svg" viewBox="0 0 1060 440" role="img" aria-label="2026年度夏期 問題4Fの4つの色組みあわせを学習用に再構成した図"><rect width="1060" height="440" fill="#f7f5ef"/><g font-family="sans-serif" fill="#222" font-size="18" text-anchor="middle"><g transform="translate(70 80)"><text x="105" y="-20">①</text><rect width="70" height="100" fill="#d92b3a"/><rect x="70" width="70" height="100" fill="#218b46"/><rect x="140" width="70" height="100" fill="#249c91"/></g><g transform="translate(330 80)"><text x="140" y="-20">②</text><rect width="70" height="100" fill="#d92b3a"/><rect x="70" width="70" height="100" fill="#e5c300"/><rect x="140" width="70" height="100" fill="#218b46"/><rect x="210" width="70" height="100" fill="#249c91"/></g><g transform="translate(70 270)"><text x="175" y="-20">③</text><rect width="70" height="100" fill="#d92b3a"/><rect x="70" width="70" height="100" fill="#e5c300"/><rect x="140" width="70" height="100" fill="#218b46"/><rect x="210" width="70" height="100" fill="#249c91"/><rect x="280" width="70" height="100" fill="#6e4b91"/></g><g transform="translate(560 270)"><text x="175" y="-20">④</text><rect width="70" height="100" fill="#d92b3a"/><rect x="70" width="70" height="100" fill="#218b46"/><rect x="140" width="70" height="100" fill="#249c91"/><rect x="210" width="70" height="100" fill="#f2f0e8" stroke="#aaa"/><rect x="280" width="70" height="100" fill="#5f5f5c"/></g></g></svg>