<svg xmlns="http://www.w3.org/2000/svg" viewBox="0 0 1200 940" role="img" aria-label="2026年度夏期 問題8の学習用再構成図版"><rect width="1200" height="940" fill="#f7f5ef"/><g font-family="sans-serif" fill="#222" font-size="18"><text x="35" y="45" font-weight="700">A</text><text x="35" y="270" font-weight="700">B</text><text x="35" y="500" font-weight="700">C</text><text x="35" y="730" font-weight="700">D</text></g><g font-family="sans-serif" fill="#222" font-size="16" text-anchor="middle"><g transform="translate(80 65)"><text x="105" y="0">①</text><rect x="35" y="18" width="140" height="105" rx="10" fill="#9b8430"/><rect x="45" y="32" width="120" height="26" fill="#74439a"/><rect x="45" y="62" width="120" height="26" fill="#ddd2e3"/><rect x="45" y="92" width="120" height="21" fill="#6d408e"/></g><g transform="translate(350 65)"><text x="105" y="0">②</text><rect x="35" y="18" width="140" height="105" rx="10" fill="#91662f"/><rect x="45" y="32" width="120" height="26" fill="#125478"/><rect x="45" y="62" width="120" height="26" fill="#77952a"/><rect x="45" y="92" width="120" height="21" fill="#9a315a"/></g><g transform="translate(620 65)"><text x="105" y="0">③</text><rect x="35" y="18" width="140" height="105" rx="10" fill="#87662f"/><rect x="45" y="32" width="120" height="26" fill="#c52636"/><rect x="45" y="62" width="120" height="26" fill="#202020"/><rect x="45" y="92" width="120" height="21" fill="#e9bd00"/></g><g transform="translate(890 65)"><text x="105" y="0">④</text><rect x="35" y="18" width="140" height="105" rx="10" fill="#315398"/><rect x="45" y="32" width="120" height="26" fill="#e16c1d"/><rect x="45" y="62" width="120" height="26" fill="#6d3f8a"/><rect x="45" y="92" width="120" height="21" fill="#315398"/></g><g transform="translate(80 290)"><text x="105" y="0">①</text><rect x="30" y="55" width="150" height="72" rx="20" fill="#e9c81b"/><rect x="60" y="55" width="90" height="72" fill="#222"/><circle cx="24" cy="92" r="18" fill="#e9c81b"/><circle cx="186" cy="92" r="18" fill="#222"/></g><g transform="translate(350 290)"><text x="105" y="0">②</text><rect x="30" y="55" width="150" height="72" rx="20" fill="#57b8c8"/><rect x="80" y="55" width="50" height="72" fill="#659cc4"/><circle cx="24" cy="92" r="18" fill="#7bc8d3"/><circle cx="186" cy="92" r="18" fill="#64b2c2"/></g><g transform="translate(620 290)"><text x="105" y="0">③</text><rect x="30" y="55" width="150" height="72" rx="20" fill="#244889"/><rect x="67" y="55" width="37" height="72" fill="#e6b900"/><rect x="104" y="55" width="38" height="72" fill="#75a51e"/><rect x="142" y="55" width="38" height="72" fill="#d51f32"/><circle cx="24" cy="92" r="18" fill="#27508a"/><circle cx="186" cy="92" r="18" fill="#d51f32"/></g><g transform="translate(890 290)"><text x="105" y="0">④</text><rect x="30" y="55" width="150" height="72" rx="20" fill="#577a38"/><rect x="67" y="55" width="38" height="72" fill="#75478b"/><rect x="105" y="55" width="38" height="72" fill="#4d6a38"/><rect x="143" y="55" width="37" height="72" fill="#85548f"/><circle cx="24" cy="92" r="18" fill="#75478b"/><circle cx="186" cy="92" r="18" fill="#577a38"/></g><g transform="translate(80 515)"><text x="105" y="0">①</text><path d="M45 50H165V145H45Z" fill="#a83379"/><path d="M45 70H165M45 95H165M45 120H165" stroke="#d67ca8" stroke-width="12"/></g><g transform="translate(350 515)"><text x="105" y="0">②</text><path d="M45 50H165V145H45Z" fill="#ef9c1a"/><path d="M45 70H165M45 95H165M45 120H165" stroke="#f4c66b" stroke-width="12"/></g><g transform="translate(620 515)"><text x="105" y="0">③</text><path d="M45 50H165V145H45Z" fill="#922275"/><path d="M45 70H165M45 95H165M45 120H165" stroke="#a83b88" stroke-width="12"/></g><g transform="translate(890 515)"><text x="105" y="0">④</text><path d="M45 50H165V145H45Z" fill="#dadc9e"/><path d="M45 70H165M45 95H165M45 120H165" stroke="#b394bd" stroke-width="12"/></g></g><g transform="translate(120 755)" font-family="sans-serif" fill="#222"><path d="M0 45H210V185H0Z" fill="#7e478d"/><path d="M15 65H195V95H15Z" fill="#8cb224"/><path d="M15 105H195V135H15Z" fill="#cb572c"/><rect x="15" y="145" width="180" height="25" fill="#f7f5ef" stroke="#888"/><text x="90" y="165" text-anchor="middle" font-size="17">ア</text><g transform="translate(300 65)" font-size="16" text-anchor="middle"><text x="45" y="-10">①</text><rect width="90" height="90" fill="#bd8b13"/><text x="165" y="-10">②</text><rect x="120" width="90" height="90" fill="#a15ab4"/><text x="285" y="-10">③</text><rect x="240" width="90" height="90" fill="#198a41"/><text x="405" y="-10">④</text><rect x="360" width="90" height="90" fill="#259a9c"/></g></g></svg>