<svg xmlns="http://www.w3.org/2000/svg" viewBox="0 0 1000 520" role="img" aria-label="ファッション配色を抽象化した学習用図版"><rect width="1000" height="520" fill="#f7f5ef"/><g font-family="sans-serif" fill="#222"><text x="500" y="40" text-anchor="middle" font-size="28" font-weight="700">写真を配色関係へ置き換える</text><g transform="translate(170 80)"><text x="140" text-anchor="middle" font-size="19">A：多色配色</text><circle cx="140" cy="55" r="30" fill="#9b694e"/><path d="M90 90Q140 65 190 90L215 210L180 245L185 405H95L100 245L65 210Z" fill="#eeeae2"/><path d="M95 120L125 155L105 210L145 250L175 190L205 230" fill="none" stroke="#e8b832" stroke-width="20"/><path d="M110 275L140 315L115 365" fill="none" stroke="#497a92" stroke-width="20"/><path d="M170 265L155 325L185 370" fill="none" stroke="#9a4b70" stroke-width="20"/></g><g transform="translate(600 80)"><text x="140" text-anchor="middle" font-size="19">B：バイカラー</text><circle cx="140" cy="55" r="30" fill="#6b4637"/><path d="M90 90Q140 65 190 90L225 180L190 210L178 405H102L90 210L55 180Z" fill="#151515"/><path d="M75 95Q140 55 205 95L188 170H92Z" fill="#e2bd21"/><g fill="#111"><ellipse cx="100" cy="113" rx="13" ry="7"/><ellipse cx="130" cy="130" rx="13" ry="7"/><ellipse cx="160" cy="110" rx="13" ry="7"/><ellipse cx="185" cy="135" rx="13" ry="7"/></g></g></g></svg>