<svg xmlns="http://www.w3.org/2000/svg" viewBox="0 0 500 760" role="img" aria-label="2025年度夏期 問題11 写真Bの学習用再構成図"><defs><linearGradient id="pants" x1="0" y1="0" x2="0" y2="1"><stop offset="0" stop-color="#eef0ed"/><stop offset=".36" stop-color="#d6dee0"/><stop offset=".62" stop-color="#7891a4"/><stop offset=".82" stop-color="#3f6077"/><stop offset="1" stop-color="#1f3042"/></linearGradient></defs><rect width="500" height="760" fill="#d6c6aa"/><g opacity=".55"><rect x="0" y="0" width="500" height="210" fill="#8c7555"/><rect x="20" y="42" width="72" height="150" fill="#5f4e3b"/><rect x="118" y="18" width="96" height="175" fill="#a78764"/><rect x="236" y="52" width="102" height="145" fill="#6b5846"/><rect x="360" y="25" width="116" height="170" fill="#96765a"/></g><rect y="210" width="500" height="550" fill="#d8c7a8"/><ellipse cx="250" cy="105" rx="43" ry="54" fill="#bd835f"/><path d="M205 77c15-39 73-42 90 3-15-13-32-19-47-19-16 0-30 5-43 16Z" fill="#111"/><path d="M178 165Q250 130 322 165L344 345Q318 383 287 397H213Q182 383 156 345Z" fill="#111214"/><path d="M169 180L119 343" stroke="#111214" stroke-width="36" stroke-linecap="round"/><path d="M331 180L381 343" stroke="#111214" stroke-width="36" stroke-linecap="round"/><path d="M205 386L174 628" stroke="url(#pants)" stroke-width="82" stroke-linecap="round"/><path d="M295 386L326 628" stroke="url(#pants)" stroke-width="82" stroke-linecap="round"/><path d="M179 632L153 692" stroke="#202833" stroke-width="32" stroke-linecap="round"/><path d="M321 632L347 692" stroke="#202833" stroke-width="32" stroke-linecap="round"/><path d="M150 696h74M276 696h74" stroke="#111214" stroke-width="18" stroke-linecap="round"/></svg>