<svg xmlns="http://www.w3.org/2000/svg" viewBox="0 0 500 760" role="img" aria-labelledby="t d"><title id="t">2025年度夏期 問題12 写真A 学習用再構成図</title><desc id="d">原本写真の衣服の主要な色面、明暗、面積比を学習用に簡略化した図</desc><rect width="500" height="760" fill="#394239"/><g opacity=".5" fill="#212a22"><circle cx="75" cy="180" r="45"/><circle cx="420" cy="165" r="50"/><rect x="30" y="230" width="90" height="260"/><rect x="385" y="220" width="80" height="280"/></g><ellipse cx="250" cy="105" rx="43" ry="54" fill="#b77d5f"/><path d="M207 73c22-28 67-28 87 1-11-8-25-13-43-13-17 0-31 4-44 12Z" fill="#211b18"/><path d="M168 165Q250 132 332 165L345 332Q316 371 283 388H217Q184 371 155 332Z" fill="#e9dfca"/><path d="M168 182L118 342" stroke="#e7dcc7" stroke-width="42" stroke-linecap="round"/><path d="M332 182L382 342" stroke="#e7dcc7" stroke-width="42" stroke-linecap="round"/><path d="M213 378L176 656" stroke="#ddd0b9" stroke-width="88" stroke-linecap="round"/><path d="M287 378L324 656" stroke="#e6dac5" stroke-width="88" stroke-linecap="round"/><path d="M196 170L218 320M304 170L282 320" stroke="#f5eedf" stroke-width="9"/><path d="M157 332Q250 354 343 332" stroke="#cdbfa7" stroke-width="8"/><path d="M155 688h100M245 688h100" stroke="#d8d0c4" stroke-width="24" stroke-linecap="round"/></svg>